<mxfile host="app.diagrams.net" agent="Mozilla/5.0 (Windows NT 10.0; Win64; x64; rv:132.0) Gecko/20100101 Firefox/132.0" version="24.7.14">
  <diagram name="Page-1" id="2k4AlJM7hqiThTlB6kKU">
    <mxGraphModel dx="1079" dy="1645" grid="1" gridSize="10" guides="1" tooltips="1" connect="1" arrows="1" fold="1" page="1" pageScale="1" pageWidth="850" pageHeight="1100" math="0" shadow="0">
      <root>
        <mxCell id="0" />
        <mxCell id="1" parent="0" />
        <mxCell id="cxDqm1JxjZuEiSdS5-8y-6" value="Enums" style="rounded=1;whiteSpace=wrap;html=1;" vertex="1" parent="1">
          <mxGeometry x="80" y="200" width="160" height="40" as="geometry" />
        </mxCell>
        <mxCell id="cxDqm1JxjZuEiSdS5-8y-7" value="&lt;div&gt;ISnapToTarget&lt;/div&gt;" style="rounded=1;whiteSpace=wrap;html=1;fillColor=#cce5ff;strokeColor=#36393d;" vertex="1" parent="1">
          <mxGeometry x="80" y="280" width="160" height="40" as="geometry" />
        </mxCell>
        <mxCell id="cxDqm1JxjZuEiSdS5-8y-8" value="Utility" style="swimlane;fontStyle=0;childLayout=stackLayout;horizontal=1;startSize=30;horizontalStack=0;resizeParent=1;resizeParentMax=0;resizeLast=0;collapsible=1;marginBottom=0;whiteSpace=wrap;html=1;" vertex="1" parent="1">
          <mxGeometry x="40" y="130" width="240" height="230" as="geometry" />
        </mxCell>
        <mxCell id="cxDqm1JxjZuEiSdS5-8y-12" value="Runtime" style="swimlane;fontStyle=0;childLayout=stackLayout;horizontal=1;startSize=30;horizontalStack=0;resizeParent=1;resizeParentMax=0;resizeLast=0;collapsible=1;marginBottom=0;whiteSpace=wrap;html=1;" vertex="1" parent="1">
          <mxGeometry x="425" y="-150" width="240" height="230" as="geometry" />
        </mxCell>
        <mxCell id="cxDqm1JxjZuEiSdS5-8y-13" value="EditorData" style="swimlane;fontStyle=0;childLayout=stackLayout;horizontal=1;startSize=30;horizontalStack=0;resizeParent=1;resizeParentMax=0;resizeLast=0;collapsible=1;marginBottom=0;whiteSpace=wrap;html=1;" vertex="1" parent="1">
          <mxGeometry x="320" y="130" width="240" height="230" as="geometry" />
        </mxCell>
        <mxCell id="cxDqm1JxjZuEiSdS5-8y-14" value="Editor" style="swimlane;fontStyle=0;childLayout=stackLayout;horizontal=1;startSize=30;horizontalStack=0;resizeParent=1;resizeParentMax=0;resizeLast=0;collapsible=1;marginBottom=0;whiteSpace=wrap;html=1;" vertex="1" parent="1">
          <mxGeometry x="790" y="200" width="240" height="230" as="geometry" />
        </mxCell>
        <mxCell id="cxDqm1JxjZuEiSdS5-8y-15" style="edgeStyle=orthogonalEdgeStyle;rounded=0;orthogonalLoop=1;jettySize=auto;html=1;entryX=0.992;entryY=0.065;entryDx=0;entryDy=0;entryPerimeter=0;" edge="1" parent="1" source="cxDqm1JxjZuEiSdS5-8y-13" target="cxDqm1JxjZuEiSdS5-8y-8">
          <mxGeometry relative="1" as="geometry">
            <Array as="points">
              <mxPoint x="340" y="145" />
              <mxPoint x="340" y="145" />
            </Array>
          </mxGeometry>
        </mxCell>
        <mxCell id="cxDqm1JxjZuEiSdS5-8y-16" value="BezierCurveMB" style="rounded=1;whiteSpace=wrap;html=1;" vertex="1" parent="1">
          <mxGeometry x="360" y="200" width="160" height="40" as="geometry" />
        </mxCell>
        <mxCell id="cxDqm1JxjZuEiSdS5-8y-17" value="RoadGenerator" style="rounded=1;whiteSpace=wrap;html=1;" vertex="1" parent="1">
          <mxGeometry x="360" y="280" width="160" height="40" as="geometry" />
        </mxCell>
      </root>
    </mxGraphModel>
  </diagram>
</mxfile>
